<svg id="Layer_1" data-name="Layer 1" xmlns="http://www.w3.org/2000/svg" viewBox="0 0 256 256"><defs><style>.cls-1{fill:#686868;}.cls-2{fill:#484848;}.cls-3{fill:#40bbff;stroke:#686868;stroke-linecap:round;stroke-linejoin:round;stroke-width:4px;}</style></defs><polygon class="cls-1" points="256 196.76 256 0 0 0 0 256 196.78 256 255.74 196.7 256 196.76"/><polygon class="cls-2" points="255.74 196.7 196.78 196.7 196.78 256 197.17 256 255.74 196.7"/><rect class="cls-2" width="255.74" height="53.27"/><polyline class="cls-3" points="189.85 98.03 218.34 121.15 130.27 215.95 42.21 121.15 70.69 98.03"/><polyline class="cls-3" points="160.06 101.77 174.31 126.67 130.27 215.95 86.24 126.67 100.48 101.77"/><polyline class="cls-3" points="218.34 121.15 174.31 126.67 86.24 126.67 42.21 121.15"/><polygon class="cls-3" points="100.48 101.77 70.69 98.03 100.48 94.3 160.06 94.3 189.85 98.03 160.06 101.77 100.48 101.77"/></svg>