<svg id="Layer_1" data-name="Layer 1" xmlns="http://www.w3.org/2000/svg" viewBox="0 0 256 256"><defs><style>.cls-1{fill:#51b1ff;}</style></defs><polygon class="cls-1" points="61.23 99.59 194.75 99.59 254.44 92.11 217.67 62.27 178.19 67.22 193.64 94.24 186.64 94.24 171.52 67.81 84.45 67.81 69.34 94.24 62.33 94.24 77.79 67.22 38.3 62.27 1.53 92.11 61.23 99.59"/><polygon class="cls-1" points="59.03 105.45 2 98.3 116.06 221.07 59.03 105.45"/><polygon class="cls-1" points="196.95 105.45 139.92 221.07 253.97 98.3 196.95 105.45"/><polygon class="cls-1" points="190.05 105.68 65.93 105.68 127.99 231.5 190.05 105.68"/><polygon class="cls-1" points="82.88 61.73 173.1 61.73 194.15 59.09 173.1 56.45 82.88 56.45 61.83 59.09 82.88 61.73"/></svg>